<svg xmlns="http://www.w3.org/2000/svg" version="1.1" xmlns:xlink="http://www.w3.org/1999/xlink" xmlns:svgjs="http://svgjs.dev/svgjs" width="2000" height="1500" viewBox="0 0 2000 1500"><rect width="2000" height="1500" fill="#282634"></rect><g transform="matrix(0.75,0,0,0.75,249.090909090909,334.31792133131614)"><svg viewBox="0 0 396 220" data-background-color="#282634" preserveAspectRatio="xMidYMid meet" height="1111" width="2000" xmlns="http://www.w3.org/2000/svg" xmlns:xlink="http://www.w3.org/1999/xlink"><g id="tight-bounds" transform="matrix(1,0,0,1,0.2400000000000091,-0.24895612708016301)"><svg viewBox="0 0 395.52 220.49791225416033" height="220.49791225416033" width="395.52"><g><svg viewBox="0 0 395.52 220.49791225416033" height="220.49791225416033" width="395.52"><g><svg viewBox="0 0 395.52 220.49791225416033" height="220.49791225416033" width="395.52"><g id="textblocktransform"><svg viewBox="0 0 395.52 220.49791225416033" height="220.49791225416033" width="395.52" id="textblock"><g><svg viewBox="0 0 395.52 220.49791225416033" height="220.49791225416033" width="395.52"><g transform="matrix(1,0,0,1,0,0)"><svg width="395.52" viewBox="0.8833333333333333 -36.65 66.11666666666666 36.85" height="220.49791225416033" data-palette-color="#ff4057"><g class="wordmark-text-0" data-fill-palette-color="primary" id="text-0"><path d="M5.65 0L5.65 0Q2.3-0.5 1.3-3.08 0.3-5.65 1.7-9.6L1.7-9.6 8.3-28.35Q9.2-30.95 10.38-32.8 11.55-34.65 13.33-35.65 15.1-36.65 17.75-36.65L17.75-36.65Q21.75-36.65 23.78-34.45 25.8-32.25 27.15-28.35L27.15-28.35 33.7-9.6Q35.1-5.65 34.23-3.08 33.35-0.5 29.95 0L29.95 0Q27.2 0.35 25.18-0.65 23.15-1.65 22.75-3.9L22.75-3.9Q22.45-5.4 22.68-6.4 22.9-7.4 23.1-8L23.1-8Q23.25-8.5 23.13-8.97 23-9.45 22.35-9.45L22.35-9.45 13.05-9.45Q12.4-9.45 12.28-8.97 12.15-8.5 12.35-8L12.35-8Q12.55-7.4 12.75-6.4 12.95-5.4 12.7-3.9L12.7-3.9Q12.3-1.65 10.35-0.65 8.4 0.35 5.65 0ZM14.1-16.45L21.4-16.45 18.8-24.6Q18.7-25.1 18.48-25.38 18.25-25.65 17.75-25.65L17.75-25.65Q17.25-25.65 17.03-25.38 16.8-25.1 16.65-24.6L16.65-24.6 14.1-16.45ZM47.6-22.65L48.15-22.55 55.65-33.15Q57.65-36 60-36.38 62.35-36.75 64.25-35.25L64.25-35.25Q65.5-34.3 65.9-32.7 66.3-31.1 65.65-29.3 65-27.5 63.05-25.9L63.05-25.9 54.7-19.15 54.7-18.1Q56.3-18.1 58.45-17.7 60.6-17.3 62.35-15.9L62.35-15.9Q63.75-14.85 64.77-13.5 65.8-12.15 66.4-10.18 67-8.2 67-5.2L67-5.2Q67-2.75 65.67-1.28 64.35 0.2 61.75 0.2L61.75 0.2Q59.15 0.2 57.77-1.28 56.4-2.75 56.4-5.2L56.4-5.2Q56.4-7.95 55.52-9.58 54.65-11.2 53.2-11.95 51.75-12.7 50.05-12.7L50.05-12.7 47.6-12.7 47.6-4.85Q47.6-2.7 46.12-1.3 44.65 0.1 42.35 0.1L42.35 0.1Q40.05 0.1 38.57-1.3 37.1-2.7 37.1-4.85L37.1-4.85 37.1-31.3Q37.1-33.5 38.55-35 40-36.5 42.35-36.5L42.35-36.5Q44.85-36.5 46.22-35.02 47.6-33.55 47.6-31.4L47.6-31.4 47.6-22.65Z" fill="#ff4057" data-fill-palette-color="primary"></path></g></svg></g></svg></g></svg></g></svg></g></svg></g><defs></defs></svg><rect width="395.52" height="220.49791225416033" fill="none" stroke="none" visibility="hidden"></rect></g></svg></g></svg>