<?xml version="1.0" encoding="UTF-8"?>
<svg xmlns="http://www.w3.org/2000/svg" xmlns:xlink="http://www.w3.org/1999/xlink" width="309px" height="305px" viewBox="0 0 297 165" version="1.1">
<defs>
<clipPath id="clip1">
  <path d="M 0.015625 0.1875 L 296.625 0.1875 L 296.625 165 L 0.015625 165 Z M 0.015625 0.1875 "/>
</clipPath>
</defs>
<g id="surface1">
<g clip-path="url(#clip1)" clip-rule="nonzero">
<path style=" stroke:none;fill-rule:nonzero;fill:rgb(100%,25.098039%,34.117647%);fill-opacity:1;" d="M 21.398438 164.457031 C 11.378906 162.960938 4.875 158.351562 1.882812 150.636719 C -1.105469 142.949219 -0.507812 133.199219 3.679688 121.382812 L 33.289062 37.257812 C 35.980469 29.484375 39.089844 22.828125 42.617188 17.292969 C 46.117188 11.761719 50.527344 7.5 55.851562 4.507812 C 61.144531 1.515625 67.757812 0.0195312 75.679688 0.0195312 C 87.644531 0.0195312 96.660156 3.3125 102.734375 9.890625 C 108.773438 16.472656 113.8125 25.59375 117.851562 37.257812 L 147.234375 121.382812 C 151.421875 133.199219 152.214844 142.949219 149.613281 150.636719 C 146.980469 158.351562 140.582031 162.960938 130.414062 164.457031 C 122.1875 165.503906 115.054688 164.53125 109.015625 161.539062 C 102.941406 158.546875 99.308594 153.6875 98.113281 146.957031 C 97.214844 142.472656 97.109375 138.730469 97.796875 135.742188 C 98.457031 132.75 99.085938 130.355469 99.683594 128.5625 C 100.132812 127.066406 100.175781 125.617188 99.816406 124.210938 C 99.429688 122.773438 98.261719 122.058594 96.316406 122.058594 L 54.597656 122.058594 C 52.652344 122.058594 51.5 122.773438 51.140625 124.210938 C 50.753906 125.617188 50.859375 127.066406 51.457031 128.5625 C 52.054688 130.355469 52.652344 132.75 53.25 135.742188 C 53.847656 138.730469 53.773438 142.472656 53.027344 146.957031 C 51.828125 153.6875 48.316406 158.546875 42.484375 161.539062 C 36.652344 164.53125 29.625 165.503906 21.398438 164.457031 Z M 59.308594 90.652344 L 92.054688 90.652344 L 80.390625 54.085938 C 80.09375 52.589844 79.613281 51.421875 78.957031 50.585938 C 78.269531 49.777344 77.175781 49.375 75.679688 49.375 C 74.1875 49.375 73.109375 49.777344 72.453125 50.585938 C 71.761719 51.421875 71.195312 52.589844 70.746094 54.085938 Z M 209.59375 62.832031 L 212.0625 63.28125 L 245.707031 15.722656 C 251.6875 7.199219 258.195312 2.367188 265.222656 1.230469 C 272.25 0.125 278.605469 1.816406 284.289062 6.300781 C 288.027344 9.144531 290.492188 12.957031 291.691406 17.742188 C 292.886719 22.527344 292.511719 27.613281 290.570312 32.996094 C 288.625 38.382812 284.738281 43.464844 278.90625 48.25 L 241.445312 78.535156 L 241.445312 83.246094 C 246.230469 83.246094 251.839844 83.847656 258.269531 85.042969 C 264.699219 86.238281 270.53125 88.929688 275.765625 93.117188 C 279.953125 96.257812 283.570312 99.847656 286.621094 103.886719 C 289.703125 107.925781 292.140625 112.890625 293.933594 118.78125 C 295.726562 124.703125 296.625 132.152344 296.625 141.125 C 296.625 148.453125 294.636719 154.316406 290.660156 158.710938 C 286.710938 163.140625 280.847656 165.351562 273.074219 165.351562 C 265.296875 165.351562 259.34375 163.140625 255.21875 158.710938 C 251.121094 154.316406 249.070312 148.453125 249.070312 141.125 C 249.070312 132.898438 247.757812 126.347656 245.125 121.472656 C 242.523438 116.628906 239.050781 113.082031 234.714844 110.839844 C 230.378906 108.597656 225.667969 107.476562 220.585938 107.476562 L 209.59375 107.476562 L 209.59375 142.695312 C 209.59375 149.125 207.378906 154.433594 202.953125 158.621094 C 198.558594 162.808594 192.921875 164.902344 186.042969 164.902344 C 179.164062 164.902344 173.511719 162.808594 169.082031 158.621094 C 164.6875 154.433594 162.488281 149.125 162.488281 142.695312 L 162.488281 24.023438 C 162.488281 17.445312 164.65625 11.910156 168.992188 7.421875 C 173.332031 2.9375 179.011719 0.695312 186.042969 0.695312 C 193.519531 0.695312 199.304688 2.90625 203.402344 7.335938 C 207.53125 11.730469 209.59375 17.144531 209.59375 23.574219 Z M 209.59375 62.832031 "/>
</g>
</g>
</svg>
